<?xml version="1.0" standalone="no"?><!DOCTYPE svg PUBLIC "-//W3C//DTD SVG 1.1//EN" "http://www.w3.org/Graphics/SVG/1.1/DTD/svg11.dtd"><svg t="1713162957611" class="icon" viewBox="0 0 1024 1024" version="1.1" xmlns="http://www.w3.org/2000/svg" p-id="1560" xmlns:xlink="http://www.w3.org/1999/xlink" width="200" height="200"><path d="M973.681778 166.997333H356.551111c-20.224 0-36.579556 16.355556-36.579555 36.579556v269.710222H50.261333c-20.224 0-36.579556 16.327111-36.579555 36.551111v310.897778c0 20.195556 16.355556 36.551111 36.579555 36.551111h617.130667c20.224 0 36.579556-16.355556 36.579556-36.579555v-269.710223h269.710222c20.224 0 36.579556-16.355556 36.579555-36.579555V203.576889c0-20.224-16.355556-36.579556-36.579555-36.579556z m-576 77.710223h228.579555v228.579555H397.653333V244.707556zM320 779.576889H91.392V550.968889h228.579556v228.579555z m306.289778 0H397.653333V550.968889h228.579556v228.579555z m306.289778-306.289778h-228.579556V244.707556h228.579556v228.579555z" fill="#ffffff" p-id="1561"></path></svg>