<?xml version="1.0" standalone="no"?><!DOCTYPE svg PUBLIC "-//W3C//DTD SVG 1.1//EN" "http://www.w3.org/Graphics/SVG/1.1/DTD/svg11.dtd"><svg t="1713259029861" class="icon" viewBox="0 0 1024 1024" version="1.1" xmlns="http://www.w3.org/2000/svg" p-id="7069" xmlns:xlink="http://www.w3.org/1999/xlink" width="200" height="200"><path d="M512 1024C229.229709 1024 0 794.770185 0 512 0 229.229815 229.229709 0 512 0 794.770291 0 1024 229.229815 1024 512 1024 794.770185 794.770291 1024 512 1024L512 1024ZM512 36.571277C249.435418 36.571277 36.571418 249.435454 36.571418 512 36.571418 774.582908 249.435418 987.428723 512 987.428723 774.564582 987.428723 987.428582 774.582908 987.428582 512 987.428582 249.435454 774.564582 36.571277 512 36.571277L512 36.571277ZM512 786.285815 164.571418 402.285815 215.771418 402.285815 512 731.428723 808.228582 402.285815 859.428582 402.285815 512 786.285815 512 786.285815Z" fill="#000000" p-id="7070"></path></svg>