<?xml version="1.0" standalone="no"?><!DOCTYPE svg PUBLIC "-//W3C//DTD SVG 1.1//EN" "http://www.w3.org/Graphics/SVG/1.1/DTD/svg11.dtd"><svg t="1713163543785" class="icon" viewBox="0 0 1448 1024" version="1.1" xmlns="http://www.w3.org/2000/svg" p-id="3245" xmlns:xlink="http://www.w3.org/1999/xlink" width="282.8125" height="200"><path d="M717.091 981.42c270.065 0 489.789-219.76 489.789-489.878 0-270.144-219.722-489.92-489.789-489.92-270.164 0-489.964 219.778-489.964 489.92 0.001 270.118 219.799 489.878 489.964 489.878zM717.091 46.567c245.287 0 444.843 199.61 444.843 444.975 0 245.345-199.555 444.934-444.843 444.934-245.388 0-445.021-199.59-445.021-444.934 0-245.365 199.633-444.975 445.021-444.975zM915.187 812.162l-191.751-322.395 191.751-312.372-549.755 317.341 549.755 317.426z" fill="#040000" p-id="3246"></path></svg>