<?xml version="1.0" standalone="no"?><!DOCTYPE svg PUBLIC "-//W3C//DTD SVG 1.1//EN" "http://www.w3.org/Graphics/SVG/1.1/DTD/svg11.dtd"><svg t="1713259508231" class="icon" viewBox="0 0 1024 1024" version="1.1" xmlns="http://www.w3.org/2000/svg" p-id="8114" xmlns:xlink="http://www.w3.org/1999/xlink" width="200" height="200"><path d="M518.4 96c-115.2 0-224 51.2-300.8 134.4L115.2 128v256h262.4L281.6 294.4c6.4-6.4 6.4-12.8 12.8-12.8 32-32 64-51.2 102.4-70.4 38.4-19.2 83.2-25.6 121.6-25.6 44.8 0 83.2 6.4 121.6 25.6 76.8 32 140.8 96 172.8 172.8 19.2 38.4 25.6 83.2 25.6 121.6 0 44.8-6.4 83.2-25.6 121.6-32 76.8-96 140.8-172.8 172.8-76.8 32-166.4 32-249.6 0C320 768 262.4 704 224 627.2c-12.8-38.4-19.2-83.2-19.2-121.6H115.2c0 224 179.2 409.6 409.6 409.6s409.6-179.2 409.6-409.6-185.6-409.6-416-409.6z" fill="#000000" p-id="8115"></path><path d="M524.8 646.4c83.2 0 147.2-64 147.2-147.2s-64-147.2-147.2-147.2-147.2 64-147.2 147.2 64 147.2 147.2 147.2z" fill="#000000" p-id="8116"></path></svg>