<?xml version="1.0" standalone="no"?><!DOCTYPE svg PUBLIC "-//W3C//DTD SVG 1.1//EN" "http://www.w3.org/Graphics/SVG/1.1/DTD/svg11.dtd"><svg t="1713163535245" class="icon" viewBox="0 0 1448 1024" version="1.1" xmlns="http://www.w3.org/2000/svg" p-id="2272" xmlns:xlink="http://www.w3.org/1999/xlink" width="282.8125" height="200"><path d="M1192.697 512.020c0-270.144-219.799-489.92-489.964-489.92-270.065 0-489.789 219.778-489.789 489.92 0 270.118 219.723 489.878 489.789 489.878 270.166 0 489.964-219.76 489.964-489.878zM1147.755 512.020c0 245.344-199.633 444.934-445.021 444.934-245.287 0-444.843-199.591-444.843-444.934 0-245.365 199.555-444.975 444.843-444.975 245.388 0 445.021 199.61 445.021 444.975zM1054.394 515.214l-549.755-317.341 191.751 312.372-191.751 322.395 549.755-317.426z" fill="#040000" p-id="2273"></path></svg>