<?xml version="1.0" standalone="no"?><!DOCTYPE svg PUBLIC "-//W3C//DTD SVG 1.1//EN" "http://www.w3.org/Graphics/SVG/1.1/DTD/svg11.dtd"><svg t="1713166364498" class="icon" viewBox="0 0 1024 1024" version="1.1" xmlns="http://www.w3.org/2000/svg" p-id="2583" xmlns:xlink="http://www.w3.org/1999/xlink" width="200" height="200"><path d="M567.594667 221.098667a21.333333 21.333333 0 0 0 0-30.165334l-21.12-21.12L461.994667 85.333333l-36.181334 36.224 50.773334 50.730667a384.042667 384.042667 0 1 0 306.944 110.848l-36.224 36.224a332.8 332.8 0 1 1-253.354667-96.981333L425.813333 290.432l36.181334 36.224 84.48-84.48 21.12-21.12z" fill="#2c2c2c" p-id="2584"></path><path d="M567.594667 190.933333l-15.061334 15.061334 15.061334-15.061334z m-21.12-21.12l15.104-15.104-15.104 15.104zM461.994667 85.333333l15.104-15.104-15.104-15.061333-15.061334 15.061333 15.061334 15.104z m-36.181334 36.224l-15.104-15.104-15.061333 15.104 15.061333 15.061334 15.104-15.061334z m50.773334 50.730667l1.92 21.248 45.312-4.138667-32.170667-32.213333-15.104 15.104z m306.944 110.848l15.104-15.104-15.104-15.061333-15.104 15.061333 15.104 15.104z m-36.224 36.224l-15.061334-15.104-15.104 15.104 15.104 15.061333 15.061334-15.061333zM493.952 222.293333l15.104 15.104 39.338667-39.381333-55.594667 2.986667 1.152 21.333333zM425.813333 290.474667l-15.104-15.061334-15.061333 15.061334 15.061333 15.104 15.104-15.104z m36.181334 36.224l-15.061334 15.061333 15.061334 15.104 15.104-15.104-15.104-15.061333z m84.48-84.48l15.104 15.104-15.104-15.104z m6.058666-36.224l30.165334 30.208a42.666667 42.666667 0 0 0 0-60.373334l-30.165334 30.165334z m-21.12-21.12l21.12 21.12 30.165334-30.165334-21.12-21.12-30.165334 30.165334z m-84.48-84.48l84.48 84.48 30.165334-30.165334-84.48-84.48-30.165334 30.208z m-6.016 36.266666l36.181334-36.266666-30.165334-30.165334-36.224 36.224 30.208 30.165334z m50.730667 20.522667l-50.773333-50.730667-30.165334 30.165334 50.773334 50.773333 30.165333-30.208zM149.333333 554.666667a362.709333 362.709333 0 0 1 329.173334-361.130667l-3.882667-42.496C268.245333 169.941333 106.666667 343.424 106.666667 554.666667h42.666666z m362.666667 362.666666A362.666667 362.666667 0 0 1 149.333333 554.666667h-42.666666a405.333333 405.333333 0 0 0 405.333333 405.333333v-42.666667z m362.666667-362.666666a362.666667 362.666667 0 0 1-362.666667 362.666666v42.666667a405.333333 405.333333 0 0 0 405.333333-405.333333h-42.666666z m-106.24-256.426667A361.472 361.472 0 0 1 874.666667 554.666667h42.666666a404.138667 404.138667 0 0 0-118.698666-286.634667l-30.208 30.208z m-6.016 36.181333l36.224-36.181333-30.208-30.208-36.181334 36.224 30.165334 30.165333zM866.133333 554.666667a352.853333 352.853333 0 0 0-103.722666-250.410667l-30.165334 30.165333A310.186667 310.186667 0 0 1 823.466667 554.666667h42.666666zM512 908.8a354.133333 354.133333 0 0 0 354.133333-354.133333h-42.666666a311.466667 311.466667 0 0 1-311.466667 311.466666v42.666667zM157.866667 554.666667a354.133333 354.133333 0 0 0 354.133333 354.133333v-42.666667A311.466667 311.466667 0 0 1 200.533333 554.666667h-42.666666z m334.933333-353.621334A354.133333 354.133333 0 0 0 157.866667 554.666667h42.666666a311.466667 311.466667 0 0 1 294.570667-311.04l-2.304-42.581334z m-13.952 6.229334L410.709333 275.413333l30.208 30.165334 68.138667-68.138667-30.208-30.165333zM410.709333 305.578667l36.224 36.181333 30.165334-30.165333-36.181334-36.181334-30.208 30.165334z m66.389334 36.181333l84.48-84.48-30.165334-30.165333-84.48 84.48 30.165334 30.165333z m75.434666-135.765333l-21.12 21.12 30.165334 30.208 21.12-21.12-30.165334-30.208z" fill="#2c2c2c" p-id="2585"></path></svg>